<svg width="449" height="202" viewBox="0 0 449 202" fill="none" xmlns="http://www.w3.org/2000/svg">
<path d="M76.42 168.97L33.55 87.2L77.4 44.72L140.95 68.63L149.34 134.73L76.42 168.97ZM44.77 89L80.44 157.02L139.48 129.3L132.62 75.22L79.6 55.28L44.77 89Z" fill="#E1E2F0"/>
<path d="M80.74 50H76.19V163H80.74V50Z" fill="#E1E2F0"/>
<path d="M135.547 70.0132L78.3358 107.046L80.8083 110.866L138.02 73.8329L135.547 70.0132Z" fill="#E1E2F0"/>
<path d="M80.3308 106.817L78.8061 111.104L143.648 134.166L145.173 129.879L80.3308 106.817Z" fill="#E1E2F0"/>
<path d="M391.68 126.21L398.57 139.34L410.13 133.91L408.8 123.38L398.58 119.53L391.68 126.21Z" fill="#E1E2F0"/>
<path d="M201.21 120.17L196.94 125.9V139.2H174.98V57.83H196.94V101.26L210.48 80.28H236.95L216.7 107.12L238.29 139.2H211.33L201.21 120.17Z" fill="#E1E2F0"/>
<path d="M280.27 132.61C276.85 136.39 270.39 140.66 260.02 140.66C246.36 140.66 240.5 132.49 240.5 122.36V80.27H262.46V112.96C262.46 118.94 265.63 121.26 271 121.26C275.88 121.26 278.44 118.7 280.27 116.62V80.27H302.23V139.19H280.27V132.61Z" fill="#E1E2F0"/>
<path d="M311.99 57.83H333.95V139.2H311.99V57.83Z" fill="#E1E2F0"/>
<path d="M350.66 122.12V99.31H340.9V80.27H350.66V64.17H372.62V80.27H384.58V99.3H372.62V115.77C372.62 118.82 374.57 121.26 377.5 121.26C379.45 121.26 381.4 120.65 381.89 120.16L385.79 136.75C383.47 138.82 378.35 140.65 370.91 140.65C357.86 140.66 350.66 134.44 350.66 122.12V122.12Z" fill="#E1E2F0"/>
</svg>
